HIERARCHY
ROOT Hips
{
	OFFSET 0.000000 0.000000 0.000000
	CHANNELS 6 Xposition Yposition Zposition Zrotation Yrotation Xrotation 
	JOINT LHipJoint
	{
		OFFSET 0.000000 0.000000 0.000000
		CHANNELS 3 Zrotation Yrotation Xrotation
		JOINT LeftUpLeg
		{
			OFFSET 1.363060 -1.794630 0.839290
			CHANNELS 3 Zrotation Yrotation Xrotation
			JOINT LeftLeg
			{
				OFFSET 2.448110 -6.726130 0.000000
				CHANNELS 3 Zrotation Yrotation Xrotation
				JOINT LeftFoot
				{
					OFFSET 2.562200 -7.039590 0.000000
					CHANNELS 3 Zrotation Yrotation Xrotation
					JOINT LeftToeBase
					{
						OFFSET 0.157640 -0.433110 2.322550
						CHANNELS 3 Zrotation Yrotation Xrotation
						End Site
						{
							OFFSET 0.000000 0.000000 0.000000
						}
					}
				}
			}
		}
	}
	JOINT RHipJoint
	{
		OFFSET 0.000000 0.000000 0.000000
		CHANNELS 3 Zrotation Yrotation Xrotation
		JOINT RightUpLeg
		{
			OFFSET -1.305520 -1.794630 0.839290
			CHANNELS 3 Zrotation Yrotation Xrotation
			JOINT RightLeg
			{
				OFFSET -2.542530 -6.985550 0.000000
				CHANNELS 3 Zrotation Yrotation Xrotation
				JOINT RightFoot
				{
					OFFSET -2.568260 -7.056230 0.000000
					CHANNELS 3 Zrotation Yrotation Xrotation
					JOINT RightToeBase
					{
						OFFSET -0.164730 -0.452590 2.363150
						CHANNELS 3 Zrotation Yrotation Xrotation
						End Site
						{
							OFFSET 0.000000 0.000000 0.000000
						}
					}
				}
			}
		}
	}
}
MOTION
Frames: 13
Frame Time: 0.008333
-13.100547 15.564852 -2.156984 170.859657 84.867547 -159.584584 -12.185835 0.856552 -5.575075 -3.526209 14.043877 -24.260240 -2.200854 3.213080 49.394138 0.999138 4.343153 -16.533492 -0.886600 0.000000 -70.770200 7.180657 0.910085 -2.251655 21.700995 1.348050 -70.196223 1.978404 -5.237344 54.808712 -2.665252 -6.912884 -18.291938 -178.946100 0.000000 -7.782900
-12.906660 15.537835 -2.129591 168.632750 84.609159 -162.230320 -12.192466 0.971815 -5.605648 -3.070395 14.015097 -23.090349 -2.090448 3.219988 49.454648 0.882818 3.808165 -15.211375 -0.681200 -0.000000 -71.876600 7.306696 1.081960 -2.395712 20.985199 1.307277 -69.611796 1.715657 -5.298406 56.735556 -2.914924 -7.756982 -19.895243 -178.552900 0.000001 -9.609300
-12.714938 15.515153 -2.103308 166.829051 84.344699 -164.435867 -12.210771 1.072377 -5.619506 -2.602689 13.908625 -22.043570 -1.956884 3.240714 49.635982 0.777266 3.305647 -13.736245 -0.494001 0.000000 -72.484501 7.420557 1.218808 -2.547078 20.388499 1.231752 -68.954489 1.490185 -5.350821 58.487462 -3.141254 -8.539272 -21.419830 -178.139900 0.000000 -10.438900
-12.525132 15.496963 -2.078134 165.463586 84.075438 -166.166963 -12.237994 1.160103 -5.608372 -2.134977 13.710469 -21.164546 -1.803340 3.275693 49.958732 0.686937 2.847602 -12.148795 -0.332900 -0.000000 -72.482700 7.521180 1.320481 -2.697875 19.920989 1.124502 -68.244011 1.304648 -5.392656 60.018764 -3.341721 -9.242732 -22.831839 -177.724799 0.000000 -10.444900
-12.337474 15.483316 -2.053451 164.337610 83.804017 -167.632510 -12.266611 1.237983 -5.578169 -1.694734 13.422377 -20.438067 -1.634572 3.322116 50.422813 0.614473 2.438702 -10.502658 -0.202999 -0.000000 -71.661100 7.615076 1.393927 -2.853787 19.557628 0.959345 -67.475779 1.157256 -5.425899 61.324104 -3.510565 -9.841395 -24.112550 -177.326200 0.000000 -9.786000
-12.151380 15.473739 -2.029260 163.489401 83.521415 -168.763490 -12.295278 1.305288 -5.517394 -1.293723 13.031981 -19.929772 -1.455541 3.379151 51.055738 0.563926 2.105830 -8.879264 -0.107700 -0.000000 -70.090600 7.699264 1.440202 -2.998361 19.294498 0.759324 -66.693332 1.045517 -5.448256 62.388215 -3.652593 -10.344379 -25.245762 -176.956800 0.000000 -8.634700
-11.967157 15.467915 -2.005007 162.759582 83.230043 -169.735429 -12.319585 1.362071 -5.437795 -0.948752 12.560747 -19.613624 -1.272733 3.444377 51.855859 0.534171 1.851465 -7.363693 -0.043700 -0.000000 -67.539900 7.778707 1.466291 -3.137764 19.099839 0.510630 -65.888937 0.964390 -5.461945 63.237219 -3.766697 -10.744811 -26.238371 -176.625600 -0.000000 -7.195800
-11.784441 15.465139 -1.980381 162.092695 82.922372 -170.583728 -12.337688 1.407547 -5.334857 -0.677222 12.008401 -19.527303 -1.090012 3.515359 52.831234 0.526448 1.713263 -6.031456 -0.004500 0.000000 -64.342800 7.853475 1.476748 -3.259991 18.951192 0.232484 -65.102190 0.908475 -5.467017 63.892881 -3.859398 -11.059724 -27.105373 -176.333400 -0.000000 -5.703000
-11.603488 15.464927 -1.955204 161.431018 82.604398 -171.377121 -12.349081 1.439979 -5.220111 -0.480733 11.407094 -19.652279 -0.911987 3.591446 53.975949 0.537408 1.699093 -4.954970 0.019700 0.000000 -60.443400 7.925645 1.476245 -3.367772 18.827466 -0.068686 -64.330901 0.872091 -5.465109 64.394080 -3.933938 -11.299731 -27.871273 -176.077000 0.000000 -4.368500
-11.424355 15.466754 -1.929434 160.751152 82.281040 -172.136286 -12.354092 1.457692 -5.098769 -0.361027 10.779188 -19.990219 -0.740789 3.671915 55.281087 0.565199 1.829092 -4.180539 0.038100 -0.000000 -56.049800 7.995876 1.468543 -3.457615 18.712494 -0.374418 -63.590447 0.849533 -5.457311 64.777592 -3.995723 -11.483533 -28.559714 -175.849700 -0.000000 -3.342500
-11.247235 15.470260 -1.902848 159.996199 81.958053 -172.916680 -12.352312 1.459591 -4.975095 -0.325219 10.140144 -20.533639 -0.575558 3.754692 56.719350 0.610340 2.131543 -3.696571 0.058300 -0.000000 -51.765500 8.065778 1.458237 -3.527601 18.587574 -0.669879 -62.894633 0.835420 -5.445033 65.078468 -4.049085 -11.627913 -29.190934 -175.645000 -0.000000 -2.689400
-11.072344 15.475179 -1.875957 159.218410 81.650236 -173.670317 -12.345973 1.443414 -4.856999 -0.357953 9.519648 -21.268953 -0.417777 3.841059 58.276005 0.670431 2.598486 -3.525898 0.081501 -0.000000 -47.409200 8.134636 1.445991 -3.578986 18.455712 -0.936860 -62.243960 0.825509 -5.429205 65.326548 -4.096389 -11.745763 -29.771981 -175.458600 0.000000 -2.357900
-10.899975 15.481508 -1.848761 158.388456 81.368674 -174.428944 -12.334901 1.408245 -4.748105 -0.459227 8.927964 -22.176772 -0.265302 3.929133 59.911063 0.747539 3.239583 -3.608102 0.106800 -0.000000 -43.561500 8.203314 1.434498 -3.613723 18.310400 -1.166613 -61.641078 0.816794 -5.410831 65.541723 -4.138635 -11.844134 -30.307099 -175.288700 0.000000 -2.250500
